<svg width="229" height="45" viewBox="0 0 229 45" fill="none" xmlns="http://www.w3.org/2000/svg"> <g clip-path="url(#clip0)"> <path fill-rule="evenodd" clip-rule="evenodd" d="M22.4762 0C10.0629 0 0 10.0737 0 22.5C0 34.9264 10.0629 45 22.4762 45C34.8895 45 44.9524 34.9264 44.9524 22.5C44.9524 10.0737 34.8895 0 22.4762 0Z" fill="#4360DF"/> <path fill-rule="evenodd" clip-rule="evenodd" d="M23.231 21.5138C24.3596 21.6314 25.4882 21.749 26.8758 21.6716C30.6353 21.4618 32.9126 19.5302 32.751 16.6428C32.5863 13.7052 29.5566 11.8953 26.5252 12.0645C21.585 12.34 17.9522 16.6819 17.543 21.6444C18.214 21.4871 18.9201 21.3932 19.5861 21.356C20.9737 21.2787 22.1023 21.3962 23.231 21.5138ZM13.5465 27.936C13.7024 30.6289 16.5727 32.288 19.4447 32.1328C24.1248 31.8802 27.5665 27.9002 27.954 23.3511C27.3184 23.4954 26.6495 23.5816 26.0186 23.6156C24.704 23.6866 23.6347 23.5788 22.5654 23.471C21.4961 23.3632 20.4268 23.2554 19.1123 23.3264C15.5509 23.5187 13.3932 25.2893 13.5465 27.936Z" fill="white"/> <path d="M61.0099 19.0909V21.3636H58.9574V26.6477C58.9574 27.0644 59.0521 27.3461 59.2415 27.4929C59.4309 27.6397 59.6771 27.7131 59.9801 27.7131C60.1222 27.7131 60.2642 27.7012 60.4062 27.6776C60.5483 27.6491 60.6572 27.6278 60.733 27.6136L61.2088 29.8651C61.0573 29.9124 60.8442 29.9669 60.5696 30.0284C60.295 30.0947 59.9612 30.1349 59.5682 30.1491C58.4697 30.1965 57.5866 29.9598 56.919 29.4389C56.2562 28.9134 55.9271 28.1155 55.9318 27.0455V21.3636H54.4403V19.0909H55.9318V16.4773H58.9574V19.0909H61.0099ZM65.6852 23.6932V30H62.6596V15.4545H65.6V21.0156H65.7278C65.9788 20.3717 66.3765 19.8674 66.921 19.5028C67.4702 19.1335 68.1592 18.9489 68.9878 18.9489C70.1241 18.9489 71.038 19.3134 71.7292 20.0426C72.4205 20.7718 72.7638 21.7756 72.7591 23.054V30H69.7335V23.5938C69.7382 22.9214 69.5678 22.3982 69.2221 22.0241C68.8812 21.6501 68.403 21.4631 67.7875 21.4631C67.172 21.4631 66.6677 21.6596 66.2747 22.0526C65.8864 22.4408 65.6899 22.9877 65.6852 23.6932ZM79.5561 30.2131C78.4387 30.2131 77.4752 29.9858 76.6655 29.5312C75.8559 29.072 75.2332 28.4233 74.7976 27.5852C74.362 26.7424 74.1442 25.7457 74.1442 24.5952C74.1442 23.473 74.362 22.4882 74.7976 21.6406C75.2332 20.7931 75.8464 20.1326 76.6371 19.6591C77.4326 19.1856 78.3653 18.9489 79.4354 18.9489C80.3966 18.9489 81.2631 19.1525 82.0348 19.5597C82.8114 19.9669 83.4269 20.5824 83.8814 21.4062C84.336 22.2254 84.5633 23.2528 84.5633 24.4886V25.3196H77.1343V25.3267C77.1343 26.1411 77.3568 26.7827 77.8019 27.2514C78.247 27.7202 78.8483 27.9545 79.6059 27.9545C80.1125 27.9545 80.5505 27.848 80.9198 27.6349C81.2891 27.4219 81.5495 27.107 81.701 26.6903L84.4993 26.875C84.2863 27.8883 83.7465 28.6979 82.88 29.304C82.0135 29.91 80.9056 30.2131 79.5561 30.2131ZM77.1343 23.4446H81.7152C81.7105 22.7959 81.5022 22.2609 81.0902 21.8395C80.6783 21.4181 80.1433 21.2074 79.4851 21.2074C78.8128 21.2074 78.2612 21.4252 77.8303 21.8608C77.3994 22.2964 77.1674 22.8243 77.1343 23.4446ZM99.1322 22.2017L96.3623 22.3722C96.2865 22.0218 96.0948 21.7211 95.787 21.4702C95.4792 21.2192 95.0626 21.0938 94.537 21.0938C94.0683 21.0938 93.6705 21.1932 93.3438 21.392C93.0219 21.5862 92.8632 21.8466 92.868 22.1733C92.8632 22.4337 92.965 22.6539 93.1734 22.8338C93.3864 23.0137 93.7463 23.1581 94.2529 23.267L96.2274 23.6648C98.3249 24.0956 99.376 25.0805 99.3808 26.6193C99.3808 27.3343 99.1701 27.9616 98.7487 28.5014C98.332 29.0412 97.7591 29.4626 97.0299 29.7656C96.3007 30.0639 95.465 30.2131 94.5228 30.2131C93.0787 30.2131 91.9281 29.9124 91.0711 29.3111C90.2141 28.705 89.7146 27.8812 89.5725 26.8395L92.5484 26.6832C92.6431 27.1283 92.8609 27.4645 93.2018 27.6918C93.5474 27.919 93.9901 28.0327 94.5299 28.0327C95.0602 28.0327 95.4863 27.9285 95.8083 27.7202C96.135 27.5118 96.3007 27.2467 96.3055 26.9247C96.2913 26.3849 95.8249 26.0227 94.9063 25.8381L93.0171 25.4616C90.9054 25.0402 89.8542 24.0009 89.8637 22.3438C89.859 21.2926 90.278 20.464 91.1208 19.858C91.9684 19.2519 93.0905 18.9489 94.4873 18.9489C95.8651 18.9489 96.9494 19.2401 97.7401 19.8224C98.5356 20.4048 98.9996 21.1979 99.1322 22.2017ZM106.533 19.0909V21.3636H104.48V26.6477C104.48 27.0644 104.575 27.3461 104.764 27.4929C104.954 27.6397 105.2 27.7131 105.503 27.7131C105.645 27.7131 105.787 27.7012 105.929 27.6776C106.071 27.6491 106.18 27.6278 106.256 27.6136L106.732 29.8651C106.58 29.9124 106.367 29.9669 106.093 30.0284C105.818 30.0947 105.484 30.1349 105.091 30.1491C103.993 30.1965 103.11 29.9598 102.442 29.4389C101.779 28.9134 101.45 28.1155 101.455 27.0455V21.3636H99.9633V19.0909H101.455V16.4773H104.48V19.0909H106.533ZM111.059 30.206C110.017 30.206 109.153 29.9337 108.467 29.3892C107.78 28.8447 107.437 28.0327 107.437 26.9531C107.437 26.1387 107.629 25.4995 108.012 25.0355C108.396 24.5715 108.898 24.233 109.518 24.0199C110.143 23.8021 110.815 23.66 111.535 23.5938C112.482 23.4991 113.159 23.3996 113.566 23.2955C113.973 23.1913 114.177 22.964 114.177 22.6136V22.571C114.177 22.1212 114.035 21.7732 113.751 21.527C113.471 21.2808 113.074 21.1577 112.558 21.1577C112.013 21.1577 111.58 21.276 111.258 21.5128C110.936 21.7495 110.723 22.0502 110.619 22.4148L107.82 22.1875C108.029 21.1932 108.545 20.4048 109.369 19.8224C110.197 19.2401 111.265 18.9489 112.572 18.9489C113.382 18.9489 114.139 19.0767 114.845 19.3324C115.55 19.5881 116.118 19.9882 116.549 20.5327C116.985 21.0724 117.203 21.7756 117.203 22.642V30H114.333V28.4872H114.248C113.983 28.9938 113.585 29.4081 113.055 29.7301C112.529 30.0473 111.864 30.206 111.059 30.206ZM111.926 28.1179C112.588 28.1179 113.133 27.9261 113.559 27.5426C113.985 27.1544 114.198 26.6738 114.198 26.1009V24.9432C114.08 25.0237 113.895 25.0947 113.644 25.1562C113.398 25.2178 113.133 25.2723 112.849 25.3196C112.569 25.3622 112.319 25.4001 112.096 25.4332C111.566 25.509 111.137 25.6581 110.81 25.8807C110.489 26.1032 110.328 26.4276 110.328 26.8537C110.328 27.2704 110.477 27.5852 110.775 27.7983C111.078 28.0114 111.462 28.1179 111.926 28.1179ZM124.797 19.0909V21.3636H122.744V26.6477C122.744 27.0644 122.839 27.3461 123.028 27.4929C123.218 27.6397 123.464 27.7131 123.767 27.7131C123.909 27.7131 124.051 27.7012 124.193 27.6776C124.335 27.6491 124.444 27.6278 124.52 27.6136L124.996 29.8651C124.844 29.9124 124.631 29.9669 124.356 30.0284C124.082 30.0947 123.748 30.1349 123.355 30.1491C122.257 30.1965 121.374 29.9598 120.706 29.4389C120.043 28.9134 119.714 28.1155 119.719 27.0455V21.3636H118.227V19.0909H119.719V16.4773H122.744V19.0909H124.797ZM133.208 25.3551V19.0909H136.233V30H133.329V28.0185H133.215C132.969 28.6577 132.559 29.1714 131.986 29.5597C131.418 29.9479 130.724 30.142 129.905 30.142C128.807 30.142 127.917 29.7775 127.235 29.0483C126.558 28.3144 126.217 27.3106 126.212 26.0369V19.0909H129.238V25.4972C129.242 26.1411 129.415 26.6501 129.756 27.0241C130.097 27.3982 130.554 27.5852 131.127 27.5852C131.671 27.5852 132.154 27.3958 132.576 27.017C133.002 26.6383 133.213 26.0843 133.208 25.3551ZM147.175 22.2017L144.405 22.3722C144.329 22.0218 144.137 21.7211 143.83 21.4702C143.522 21.2192 143.105 21.0938 142.58 21.0938C142.111 21.0938 141.713 21.1932 141.386 21.392C141.064 21.5862 140.906 21.8466 140.911 22.1733C140.906 22.4337 141.008 22.6539 141.216 22.8338C141.429 23.0137 141.789 23.1581 142.295 23.267L144.27 23.6648C146.367 24.0956 147.419 25.0805 147.423 26.6193C147.423 27.3343 147.213 27.9616 146.791 28.5014C146.375 29.0412 145.802 29.4626 145.072 29.7656C144.343 30.0639 143.508 30.2131 142.565 30.2131C141.121 30.2131 139.971 29.9124 139.114 29.3111C138.257 28.705 137.757 27.8812 137.615 26.8395L140.591 26.6832C140.686 27.1283 140.903 27.4645 141.244 27.6918C141.59 27.919 142.033 28.0327 142.572 28.0327C143.103 28.0327 143.529 27.9285 143.851 27.7202C144.178 27.5118 144.343 27.2467 144.348 26.9247C144.334 26.3849 143.867 26.0227 142.949 25.8381L141.06 25.4616C138.948 25.0402 137.897 24.0009 137.906 22.3438C137.902 21.2926 138.321 20.464 139.163 19.858C140.011 19.2519 141.133 18.9489 142.53 18.9489C143.908 18.9489 144.992 19.2401 145.783 19.8224C146.578 20.4048 147.042 21.1979 147.175 22.2017ZM155.872 23.6932V30H152.846V19.0909H155.73V21.0156H155.858C156.104 20.3812 156.509 19.8793 157.072 19.5099C157.64 19.1359 158.329 18.9489 159.139 18.9489C160.275 18.9489 161.187 19.3158 161.873 20.0497C162.56 20.7789 162.903 21.7803 162.903 23.054V30H159.878V23.5938C159.882 22.9261 159.712 22.4053 159.366 22.0312C159.021 21.6525 158.545 21.4631 157.939 21.4631C157.328 21.4631 156.831 21.6596 156.447 22.0526C156.068 22.4408 155.877 22.9877 155.872 23.6932ZM169.704 30.2131C168.586 30.2131 167.623 29.9858 166.813 29.5312C166.003 29.072 165.381 28.4233 164.945 27.5852C164.51 26.7424 164.292 25.7457 164.292 24.5952C164.292 23.473 164.51 22.4882 164.945 21.6406C165.381 20.7931 165.994 20.1326 166.785 19.6591C167.58 19.1856 168.513 18.9489 169.583 18.9489C170.544 18.9489 171.411 19.1525 172.182 19.5597C172.959 19.9669 173.574 20.5824 174.029 21.4062C174.484 22.2254 174.711 23.2528 174.711 24.4886V25.3196H167.282V25.3267C167.282 26.1411 167.504 26.7827 167.949 27.2514C168.395 27.7202 168.996 27.9545 169.753 27.9545C170.26 27.9545 170.698 27.848 171.067 27.6349C171.437 27.4219 171.697 27.107 171.849 26.6903L174.647 26.875C174.434 27.8883 173.894 28.6979 173.028 29.304C172.161 29.91 171.053 30.2131 169.704 30.2131ZM167.282 23.4446H171.863C171.858 22.7959 171.65 22.2609 171.238 21.8395C170.826 21.4181 170.291 21.2074 169.633 21.2074C168.96 21.2074 168.409 21.4252 167.978 21.8608C167.547 22.2964 167.315 22.8243 167.282 23.4446ZM181.932 19.0909V21.3636H179.88V26.6477C179.88 27.0644 179.974 27.3461 180.164 27.4929C180.353 27.6397 180.599 27.7131 180.902 27.7131C181.044 27.7131 181.187 27.7012 181.329 27.6776C181.471 27.6491 181.58 27.6278 181.655 27.6136L182.131 29.8651C181.98 29.9124 181.767 29.9669 181.492 30.0284C181.217 30.0947 180.883 30.1349 180.49 30.1491C179.392 30.1965 178.509 29.9598 177.841 29.4389C177.178 28.9134 176.849 28.1155 176.854 27.0455V21.3636H175.363V19.0909H176.854V16.4773H179.88V19.0909H181.932ZM185.5 30L182.531 19.0909H185.592L187.282 26.4205H187.382L189.143 19.0909H192.147L193.937 26.3778H194.029L195.691 19.0909H198.745L195.784 30H192.581L190.706 23.1392H190.571L188.696 30H185.5ZM204.459 30.2131C203.356 30.2131 202.402 29.9787 201.597 29.5099C200.797 29.0365 200.179 28.3783 199.743 27.5355C199.308 26.688 199.09 25.7055 199.09 24.5881C199.09 23.4612 199.308 22.4763 199.743 21.6335C200.179 20.786 200.797 20.1278 201.597 19.6591C202.402 19.1856 203.356 18.9489 204.459 18.9489C205.563 18.9489 206.514 19.1856 207.314 19.6591C208.119 20.1278 208.74 20.786 209.175 21.6335C209.611 22.4763 209.829 23.4612 209.829 24.5881C209.829 25.7055 209.611 26.688 209.175 27.5355C208.74 28.3783 208.119 29.0365 207.314 29.5099C206.514 29.9787 205.563 30.2131 204.459 30.2131ZM204.473 27.8693C205.222 27.8693 205.787 27.5568 206.171 26.9318C206.559 26.3068 206.753 25.5185 206.753 24.5668C206.753 23.6151 206.559 22.8267 206.171 22.2017C205.787 21.572 205.222 21.2571 204.473 21.2571C203.711 21.2571 203.136 21.572 202.748 22.2017C202.359 22.8267 202.165 23.6151 202.165 24.5668C202.165 25.5185 202.359 26.3068 202.748 26.9318C203.136 27.5568 203.711 27.8693 204.473 27.8693ZM211.24 30V19.0909H214.174V20.9943H214.287C214.486 20.3172 214.82 19.8059 215.289 19.4602C215.757 19.1098 216.297 18.9347 216.908 18.9347C217.244 18.9347 217.561 18.9702 217.86 19.0412V21.7259C217.718 21.6785 217.521 21.6406 217.27 21.6122C217.019 21.5791 216.79 21.5625 216.581 21.5625C215.914 21.5625 215.36 21.7732 214.919 22.1946C214.484 22.6113 214.266 23.1558 214.266 23.8281V30H211.24ZM218.868 30V15.4545H221.894V23.2315H222.057L225.552 19.0909H229.025L224.976 23.8139L229.231 30H225.687L222.711 25.6037L221.894 26.5341V30H218.868Z" fill="black"/> </g> <defs> <clipPath id="clip0"> <rect width="229" height="45" fill="white"/> </clipPath> </defs> </svg>